<svg width="781" height="218" viewBox="0 0 781 218" fill="none" xmlns="http://www.w3.org/2000/svg">
<path d="M169.175 134.912C163.018 127.149 154.72 121.26 144.013 117.512C152.043 113.497 158.2 107.876 162.751 100.648C167.034 93.6886 169.175 85.6581 169.175 76.8246C169.175 61.8344 163.018 49.7887 150.437 40.9552C137.856 32.1217 119.654 27.8388 95.8302 27.8388H0V66.1174H88.8705C106.805 66.1174 115.639 72.0064 115.639 84.0521C115.639 96.0978 106.805 102.254 88.8705 102.254H0V138.927H96.9009C115.371 138.927 124.74 145.351 124.74 157.932C124.74 170.513 115.371 176.938 96.9009 176.938H0V215.216H101.184C126.078 215.216 145.351 210.666 158.468 201.832C171.584 192.999 178.276 180.15 178.276 163.821C178.276 152.579 175.332 142.942 169.175 134.912Z" fill="url(#paint0_linear_1_6)"/>
<path d="M325.768 84.0519C313.187 73.0769 294.717 67.7233 270.625 67.7233C259.115 67.7233 247.604 69.0617 236.094 72.0062C224.584 74.9507 214.68 79.2336 206.649 84.5873L223.781 119.118C228.867 115.103 234.756 112.159 241.983 109.749C249.211 107.608 256.17 106.537 263.13 106.537C282.671 106.537 293.11 114.3 293.913 129.558H265.004C243.054 129.558 226.725 133.305 216.286 140.801C205.846 148.563 200.492 159.271 200.492 172.922C200.492 181.488 202.634 188.983 206.917 195.675C210.932 202.367 217.089 207.721 225.387 211.736C233.685 215.752 243.322 217.625 254.564 217.625C275.711 217.625 290.166 210.666 297.393 196.478V215.216H344.773V134.644C344.773 111.891 338.349 95.0269 325.768 84.0519ZM284.277 181.221C279.726 184.165 274.64 185.503 268.751 185.503C262.862 185.503 258.312 184.165 254.832 181.488C251.352 178.811 249.746 175.332 249.746 170.781C249.746 160.877 257.241 156.058 271.964 156.058H293.913V168.639C292.04 174.261 288.828 178.276 284.277 181.221Z" fill="url(#paint1_linear_1_6)"/>
<path d="M508.593 177.205H438.728L505.916 99.8452V70.1325H376.626V107.876H441.94L374.752 185.236V215.216H508.593V177.205Z" fill="url(#paint2_linear_1_6)"/>
<path d="M536.431 70.1327V215.216H587.291V70.1327H536.431ZM539.376 46.309C544.997 51.395 552.492 54.0718 561.861 54.0718C571.23 54.0718 578.725 51.395 584.346 46.0413C589.968 40.9554 592.912 34.2633 592.912 26.2328C592.912 18.4701 589.968 12.3134 584.346 7.2274C578.725 2.40913 571.23 0 561.861 0C552.492 0 544.997 2.67683 539.376 7.76279C533.754 12.8487 530.81 19.2731 530.81 27.0359C530.81 34.7987 533.754 41.223 539.376 46.309Z" fill="url(#paint3_linear_1_6)"/>
<path d="M656.352 207.989C668.933 214.413 682.852 217.625 698.378 217.625C714.171 217.625 728.091 214.413 740.672 207.989C753.253 201.564 762.889 192.731 769.849 181.221C776.809 169.71 780.289 156.861 780.289 142.407C780.289 127.952 776.809 115.103 769.849 103.593C762.889 92.3501 753.253 83.5165 740.672 77.0922C728.091 70.9355 714.171 67.7233 698.378 67.7233C682.585 67.7233 668.665 70.9355 656.352 77.0922C643.771 83.5165 634.134 92.3501 627.174 103.86C619.947 115.371 616.467 128.219 616.467 142.407C616.467 156.861 619.947 169.71 627.174 181.221C634.134 192.731 643.771 201.564 656.352 207.989ZM720.328 167.836C714.706 173.993 707.211 177.205 698.378 177.205C689.544 177.205 682.049 173.993 676.428 167.836C670.807 161.68 667.862 153.382 667.862 142.407C667.862 131.699 670.807 123.401 676.428 117.244C682.049 111.088 689.544 108.143 698.378 108.143C707.211 108.143 714.706 111.088 720.328 117.244C725.949 123.401 728.894 131.699 728.894 142.407C728.894 153.382 725.949 161.68 720.328 167.836Z" fill="url(#paint4_linear_1_6)"/>
<defs>
<linearGradient id="paint0_linear_1_6" x1="0" y1="-80.4237" x2="3048.93" y2="-80.4237" gradientUnits="userSpaceOnUse">
<stop stop-color="#F0F0F0"/>
<stop offset="0.0238095" stop-color="#ECEEEE"/>
<stop offset="0.047619" stop-color="#E8EBED"/>
<stop offset="0.0714286" stop-color="#E4E9EB"/>
<stop offset="0.0952381" stop-color="#E0E7E9"/>
<stop offset="0.119048" stop-color="#DCE4E8"/>
<stop offset="0.142857" stop-color="#D8E2E6"/>
<stop offset="0.166667" stop-color="#D4E0E5"/>
<stop offset="0.190476" stop-color="#D0DDE3"/>
<stop offset="0.214286" stop-color="#CCDBE1"/>
<stop offset="0.238095" stop-color="#C8D9E0"/>
<stop offset="0.261905" stop-color="#C4D6DE"/>
<stop offset="0.285714" stop-color="#C0D4DC"/>
<stop offset="0.309524" stop-color="#BCD2DB"/>
<stop offset="0.333333" stop-color="#B8CFD9"/>
<stop offset="0.357143" stop-color="#B4CDD8"/>
<stop offset="0.380952" stop-color="#B0CBD6"/>
<stop offset="0.404762" stop-color="#ACC8D4"/>
<stop offset="0.428571" stop-color="#A8C6D3"/>
<stop offset="0.452381" stop-color="#A4C4D1"/>
<stop offset="0.47619" stop-color="#A0C1CF"/>
<stop offset="0.5" stop-color="#9CBFCE"/>
<stop offset="0.52381" stop-color="#98BDCC"/>
<stop offset="0.547619" stop-color="#94BBCA"/>
<stop offset="0.571429" stop-color="#90B8C9"/>
<stop offset="0.595238" stop-color="#8CB6C7"/>
<stop offset="0.619048" stop-color="#88B4C5"/>
<stop offset="0.642857" stop-color="#84B1C4"/>
<stop offset="0.666667" stop-color="#80AFC2"/>
<stop offset="0.690476" stop-color="#7CADC1"/>
<stop offset="0.714286" stop-color="#78AABF"/>
<stop offset="0.738095" stop-color="#74A8BD"/>
<stop offset="0.761905" stop-color="#70A6BC"/>
<stop offset="0.785714" stop-color="#6BA4BA"/>
<stop offset="0.809524" stop-color="#67A1B8"/>
<stop offset="0.833333" stop-color="#639FB7"/>
<stop offset="0.857143" stop-color="#5F9DB5"/>
<stop offset="0.880952" stop-color="#5A9AB3"/>
<stop offset="0.904762" stop-color="#5698B2"/>
<stop offset="0.928571" stop-color="#5196B0"/>
<stop offset="0.952381" stop-color="#4D94AE"/>
<stop offset="0.97619" stop-color="#4891AD"/>
<stop offset="1" stop-color="#438FAB"/>
</linearGradient>
<linearGradient id="paint1_linear_1_6" x1="-579.206" y1="-195.646" x2="2469.73" y2="-195.646" gradientUnits="userSpaceOnUse">
<stop stop-color="#F0F0F0"/>
<stop offset="0.0238095" stop-color="#ECEEEE"/>
<stop offset="0.047619" stop-color="#E8EBED"/>
<stop offset="0.0714286" stop-color="#E4E9EB"/>
<stop offset="0.0952381" stop-color="#E0E7E9"/>
<stop offset="0.119048" stop-color="#DCE4E8"/>
<stop offset="0.142857" stop-color="#D8E2E6"/>
<stop offset="0.166667" stop-color="#D4E0E5"/>
<stop offset="0.190476" stop-color="#D0DDE3"/>
<stop offset="0.214286" stop-color="#CCDBE1"/>
<stop offset="0.238095" stop-color="#C8D9E0"/>
<stop offset="0.261905" stop-color="#C4D6DE"/>
<stop offset="0.285714" stop-color="#C0D4DC"/>
<stop offset="0.309524" stop-color="#BCD2DB"/>
<stop offset="0.333333" stop-color="#B8CFD9"/>
<stop offset="0.357143" stop-color="#B4CDD8"/>
<stop offset="0.380952" stop-color="#B0CBD6"/>
<stop offset="0.404762" stop-color="#ACC8D4"/>
<stop offset="0.428571" stop-color="#A8C6D3"/>
<stop offset="0.452381" stop-color="#A4C4D1"/>
<stop offset="0.47619" stop-color="#A0C1CF"/>
<stop offset="0.5" stop-color="#9CBFCE"/>
<stop offset="0.52381" stop-color="#98BDCC"/>
<stop offset="0.547619" stop-color="#94BBCA"/>
<stop offset="0.571429" stop-color="#90B8C9"/>
<stop offset="0.595238" stop-color="#8CB6C7"/>
<stop offset="0.619048" stop-color="#88B4C5"/>
<stop offset="0.642857" stop-color="#84B1C4"/>
<stop offset="0.666667" stop-color="#80AFC2"/>
<stop offset="0.690476" stop-color="#7CADC1"/>
<stop offset="0.714286" stop-color="#78AABF"/>
<stop offset="0.738095" stop-color="#74A8BD"/>
<stop offset="0.761905" stop-color="#70A6BC"/>
<stop offset="0.785714" stop-color="#6BA4BA"/>
<stop offset="0.809524" stop-color="#67A1B8"/>
<stop offset="0.833333" stop-color="#639FB7"/>
<stop offset="0.857143" stop-color="#5F9DB5"/>
<stop offset="0.880952" stop-color="#5A9AB3"/>
<stop offset="0.904762" stop-color="#5698B2"/>
<stop offset="0.928571" stop-color="#5196B0"/>
<stop offset="0.952381" stop-color="#4D94AE"/>
<stop offset="0.97619" stop-color="#4891AD"/>
<stop offset="1" stop-color="#438FAB"/>
</linearGradient>
<linearGradient id="paint2_linear_1_6" x1="-1082.63" y1="-202.606" x2="1966.3" y2="-202.606" gradientUnits="userSpaceOnUse">
<stop stop-color="#F0F0F0"/>
<stop offset="0.0238095" stop-color="#ECEEEE"/>
<stop offset="0.047619" stop-color="#E8EBED"/>
<stop offset="0.0714286" stop-color="#E4E9EB"/>
<stop offset="0.0952381" stop-color="#E0E7E9"/>
<stop offset="0.119048" stop-color="#DCE4E8"/>
<stop offset="0.142857" stop-color="#D8E2E6"/>
<stop offset="0.166667" stop-color="#D4E0E5"/>
<stop offset="0.190476" stop-color="#D0DDE3"/>
<stop offset="0.214286" stop-color="#CCDBE1"/>
<stop offset="0.238095" stop-color="#C8D9E0"/>
<stop offset="0.261905" stop-color="#C4D6DE"/>
<stop offset="0.285714" stop-color="#C0D4DC"/>
<stop offset="0.309524" stop-color="#BCD2DB"/>
<stop offset="0.333333" stop-color="#B8CFD9"/>
<stop offset="0.357143" stop-color="#B4CDD8"/>
<stop offset="0.380952" stop-color="#B0CBD6"/>
<stop offset="0.404762" stop-color="#ACC8D4"/>
<stop offset="0.428571" stop-color="#A8C6D3"/>
<stop offset="0.452381" stop-color="#A4C4D1"/>
<stop offset="0.47619" stop-color="#A0C1CF"/>
<stop offset="0.5" stop-color="#9CBFCE"/>
<stop offset="0.52381" stop-color="#98BDCC"/>
<stop offset="0.547619" stop-color="#94BBCA"/>
<stop offset="0.571429" stop-color="#90B8C9"/>
<stop offset="0.595238" stop-color="#8CB6C7"/>
<stop offset="0.619048" stop-color="#88B4C5"/>
<stop offset="0.642857" stop-color="#84B1C4"/>
<stop offset="0.666667" stop-color="#80AFC2"/>
<stop offset="0.690476" stop-color="#7CADC1"/>
<stop offset="0.714286" stop-color="#78AABF"/>
<stop offset="0.738095" stop-color="#74A8BD"/>
<stop offset="0.761905" stop-color="#70A6BC"/>
<stop offset="0.785714" stop-color="#6BA4BA"/>
<stop offset="0.809524" stop-color="#67A1B8"/>
<stop offset="0.833333" stop-color="#639FB7"/>
<stop offset="0.857143" stop-color="#5F9DB5"/>
<stop offset="0.880952" stop-color="#5A9AB3"/>
<stop offset="0.904762" stop-color="#5698B2"/>
<stop offset="0.928571" stop-color="#5196B0"/>
<stop offset="0.952381" stop-color="#4D94AE"/>
<stop offset="0.97619" stop-color="#4891AD"/>
<stop offset="1" stop-color="#438FAB"/>
</linearGradient>
<linearGradient id="paint3_linear_1_6" x1="-1533.47" y1="0" x2="1515.47" y2="0" gradientUnits="userSpaceOnUse">
<stop stop-color="#F0F0F0"/>
<stop offset="0.0238095" stop-color="#ECEEEE"/>
<stop offset="0.047619" stop-color="#E8EBED"/>
<stop offset="0.0714286" stop-color="#E4E9EB"/>
<stop offset="0.0952381" stop-color="#E0E7E9"/>
<stop offset="0.119048" stop-color="#DCE4E8"/>
<stop offset="0.142857" stop-color="#D8E2E6"/>
<stop offset="0.166667" stop-color="#D4E0E5"/>
<stop offset="0.190476" stop-color="#D0DDE3"/>
<stop offset="0.214286" stop-color="#CCDBE1"/>
<stop offset="0.238095" stop-color="#C8D9E0"/>
<stop offset="0.261905" stop-color="#C4D6DE"/>
<stop offset="0.285714" stop-color="#C0D4DC"/>
<stop offset="0.309524" stop-color="#BCD2DB"/>
<stop offset="0.333333" stop-color="#B8CFD9"/>
<stop offset="0.357143" stop-color="#B4CDD8"/>
<stop offset="0.380952" stop-color="#B0CBD6"/>
<stop offset="0.404762" stop-color="#ACC8D4"/>
<stop offset="0.428571" stop-color="#A8C6D3"/>
<stop offset="0.452381" stop-color="#A4C4D1"/>
<stop offset="0.47619" stop-color="#A0C1CF"/>
<stop offset="0.5" stop-color="#9CBFCE"/>
<stop offset="0.52381" stop-color="#98BDCC"/>
<stop offset="0.547619" stop-color="#94BBCA"/>
<stop offset="0.571429" stop-color="#90B8C9"/>
<stop offset="0.595238" stop-color="#8CB6C7"/>
<stop offset="0.619048" stop-color="#88B4C5"/>
<stop offset="0.642857" stop-color="#84B1C4"/>
<stop offset="0.666667" stop-color="#80AFC2"/>
<stop offset="0.690476" stop-color="#7CADC1"/>
<stop offset="0.714286" stop-color="#78AABF"/>
<stop offset="0.738095" stop-color="#74A8BD"/>
<stop offset="0.761905" stop-color="#70A6BC"/>
<stop offset="0.785714" stop-color="#6BA4BA"/>
<stop offset="0.809524" stop-color="#67A1B8"/>
<stop offset="0.833333" stop-color="#639FB7"/>
<stop offset="0.857143" stop-color="#5F9DB5"/>
<stop offset="0.880952" stop-color="#5A9AB3"/>
<stop offset="0.904762" stop-color="#5698B2"/>
<stop offset="0.928571" stop-color="#5196B0"/>
<stop offset="0.952381" stop-color="#4D94AE"/>
<stop offset="0.97619" stop-color="#4891AD"/>
<stop offset="1" stop-color="#438FAB"/>
</linearGradient>
<linearGradient id="paint4_linear_1_6" x1="-1780.92" y1="-195.646" x2="1268.01" y2="-195.646" gradientUnits="userSpaceOnUse">
<stop stop-color="#F0F0F0"/>
<stop offset="0.0238095" stop-color="#ECEEEE"/>
<stop offset="0.047619" stop-color="#E8EBED"/>
<stop offset="0.0714286" stop-color="#E4E9EB"/>
<stop offset="0.0952381" stop-color="#E0E7E9"/>
<stop offset="0.119048" stop-color="#DCE4E8"/>
<stop offset="0.142857" stop-color="#D8E2E6"/>
<stop offset="0.166667" stop-color="#D4E0E5"/>
<stop offset="0.190476" stop-color="#D0DDE3"/>
<stop offset="0.214286" stop-color="#CCDBE1"/>
<stop offset="0.238095" stop-color="#C8D9E0"/>
<stop offset="0.261905" stop-color="#C4D6DE"/>
<stop offset="0.285714" stop-color="#C0D4DC"/>
<stop offset="0.309524" stop-color="#BCD2DB"/>
<stop offset="0.333333" stop-color="#B8CFD9"/>
<stop offset="0.357143" stop-color="#B4CDD8"/>
<stop offset="0.380952" stop-color="#B0CBD6"/>
<stop offset="0.404762" stop-color="#ACC8D4"/>
<stop offset="0.428571" stop-color="#A8C6D3"/>
<stop offset="0.452381" stop-color="#A4C4D1"/>
<stop offset="0.47619" stop-color="#A0C1CF"/>
<stop offset="0.5" stop-color="#9CBFCE"/>
<stop offset="0.52381" stop-color="#98BDCC"/>
<stop offset="0.547619" stop-color="#94BBCA"/>
<stop offset="0.571429" stop-color="#90B8C9"/>
<stop offset="0.595238" stop-color="#8CB6C7"/>
<stop offset="0.619048" stop-color="#88B4C5"/>
<stop offset="0.642857" stop-color="#84B1C4"/>
<stop offset="0.666667" stop-color="#80AFC2"/>
<stop offset="0.690476" stop-color="#7CADC1"/>
<stop offset="0.714286" stop-color="#78AABF"/>
<stop offset="0.738095" stop-color="#74A8BD"/>
<stop offset="0.761905" stop-color="#70A6BC"/>
<stop offset="0.785714" stop-color="#6BA4BA"/>
<stop offset="0.809524" stop-color="#67A1B8"/>
<stop offset="0.833333" stop-color="#639FB7"/>
<stop offset="0.857143" stop-color="#5F9DB5"/>
<stop offset="0.880952" stop-color="#5A9AB3"/>
<stop offset="0.904762" stop-color="#5698B2"/>
<stop offset="0.928571" stop-color="#5196B0"/>
<stop offset="0.952381" stop-color="#4D94AE"/>
<stop offset="0.97619" stop-color="#4891AD"/>
<stop offset="1" stop-color="#438FAB"/>
</linearGradient>
</defs>
</svg>
